# xmcd CD database file
#
# Track frame offsets:
#	210
#	35982
#	68547
#	94232
#	113583
#	141069
#	200472
#	222958
#
# Disc length: 3256 seconds
#
# Revision: 0
# Processed by: cddbd v1.5.2PL0 Copyright (c) Steve Scherf et al.
# Submitted via: CDex 1.51
#
DISCID=720cb608
DTITLE=Ernst Bier - Mack Goldsbury Quartet with Herb Robertson - Next Move
DYEAR=1998
DGENRE=Jazz
TTITLE0=Ruth-Maria
TTITLE1=Sus This
TTITLE2=Blue Eyes
TTITLE3=Konäsörs
TTITLE4=The Blues Bizarre
TTITLE5=Garrison Remembered
TTITLE6=Möbus Curve
TTITLE7=Blues For Jimi
EXTD=YEAR: 1998
EXTT0=
EXTT1=
EXTT2=
EXTT3=
EXTT4=
EXTT5=
EXTT6=
EXTT7=
PLAYORDER=
